<?xml version="1.0" standalone="no"?>
<!DOCTYPE svg PUBLIC "-//W3C//DTD SVG 20010904//EN"
 "http://www.w3.org/TR/2001/REC-SVG-20010904/DTD/svg10.dtd">
<svg version="1.0" xmlns="http://www.w3.org/2000/svg"
 width="930.000000pt" height="724.000000pt" viewBox="0 0 930.000000 724.000000"
 preserveAspectRatio="xMidYMid meet">
<metadata>
Created by potrace 1.16, written by Peter Selinger 2001-2019
</metadata>
<g transform="translate(0.000000,724.000000) scale(0.100000,-0.100000)"
fill="#000000" stroke="none">
<path d="M1545 6735 c-7 -11 -305 -556 -662 -1210 -729 -1335 -682 -1234 -690
-1475 -4 -109 -1 -153 15 -230 94 -454 523 -802 1116 -905 302 -52 633 -36
942 45 363 96 690 286 950 552 142 144 179 198 275 390 48 98 91 177 94 176 3
-2 6 -254 5 -560 0 -535 0 -557 18 -567 12 -7 278 -11 738 -11 l719 -2 3 686
2 686 428 -2 427 -3 5 -680 5 -680 420 -7 c231 -4 886 -7 1455 -5 l1035 2 3
518 2 517 -730 0 c-730 0 -730 0 -730 220 0 220 0 220 613 222 l612 3 0 375 0
375 -613 3 c-612 2 -612 2 -610 240 3 237 3 237 728 242 l725 5 3 529 c1 292
-1 533 -5 537 -5 5 -882 9 -1951 11 -1561 2 -1945 5 -1954 15 -8 10 -149 13
-679 13 -669 0 -669 0 -692 -37 -13 -21 -340 -632 -728 -1357 -677 -1269 -706
-1322 -769 -1386 -110 -113 -239 -159 -354 -126 -42 13 -64 27 -99 66 -72 79
-85 182 -40 319 9 30 313 604 674 1275 362 672 654 1224 651 1228 -4 3 -308 8
-676 10 -660 3 -669 3 -681 -17z m4681 -150 c134 -51 276 -170 366 -309 146
-226 230 -566 208 -848 -34 -454 -207 -783 -498 -949 -77 -44 -77 -44 -717
-49 l-640 -5 -3 -682 c-2 -683 -2 -683 -240 -683 -131 0 -409 3 -617 7 l-378
6 7 641 c8 641 8 641 584 1769 l575 1127 643 0 c644 0 644 0 710 -25z m2504
-393 c0 -409 0 -409 -377 -415 -207 -4 -535 -7 -730 -7 -353 0 -353 0 -351
-357 l3 -358 613 -3 c612 -2 612 -2 612 -257 0 -255 0 -255 -612 -257 l-613
-3 0 -340 0 -340 728 -3 727 -2 0 -395 0 -395 -1340 0 -1340 0 2 623 c3 622 3
622 108 627 120 7 146 16 265 95 277 185 451 516 494 944 15 144 14 255 -5
380 -36 245 -107 450 -218 620 -50 78 -191 231 -212 231 -16 0 -19 17 -4 22 5
2 514 2 1130 0 l1120 -2 0 -408z"/>
<path d="M4955 5838 c-3 -7 -4 -168 -3 -358 3 -345 3 -345 453 -345 450 0 450
0 506 26 75 35 134 96 172 177 30 64 32 73 32 187 0 107 -3 125 -24 169 -28
55 -76 107 -124 133 -29 16 -76 18 -520 21 -391 2 -488 0 -492 -10z m924 -118
c138 -39 162 -277 40 -399 -60 -61 -61 -61 -474 -61 -375 0 -375 0 -375 228 0
126 3 232 7 235 10 11 764 8 802 -3z"/>
<path d="M4835 2611 c-175 -43 -234 -248 -106 -371 46 -45 91 -65 235 -105
106 -30 135 -90 72 -150 -84 -79 -207 -43 -243 70 -9 27 -14 30 -54 33 -95 6
-115 -20 -84 -109 40 -112 119 -168 249 -177 203 -13 316 77 316 252 0 87 -26
146 -83 187 -23 17 -93 46 -167 69 -70 22 -134 48 -143 58 -59 65 59 139 157
98 28 -12 41 -25 53 -56 16 -41 16 -41 87 -38 70 3 71 3 74 32 9 78 -66 173
-159 200 -54 16 -151 19 -204 7z"/>
<path d="M174 2596 c-11 -28 2 -589 15 -627 18 -59 65 -114 118 -140 42 -21
62 -24 158 -24 125 0 167 15 222 79 55 62 58 82 58 416 0 305 0 305 -70 305
-70 0 -70 0 -76 -285 -6 -300 -8 -312 -55 -349 -30 -24 -106 -29 -148 -9 -58
26 -61 37 -66 353 -5 290 -5 290 -78 293 -57 2 -74 0 -78 -12z"/>
<path d="M1025 2597 c-3 -6 -4 -185 -3 -397 3 -385 3 -385 68 -385 65 0 65 0
67 238 1 131 3 241 6 243 3 3 21 -25 40 -63 19 -37 80 -147 134 -243 98 -175
98 -175 173 -175 75 0 75 0 75 395 0 395 0 395 -65 395 -65 0 -65 0 -70 -255
-4 -203 -7 -250 -17 -229 -16 35 -253 461 -265 477 -14 17 -137 16 -143 -1z"/>
<path d="M1855 2598 c-3 -7 -4 -186 -3 -398 3 -385 3 -385 78 -385 75 0 75 0
75 395 0 395 0 395 -73 398 -52 2 -74 -1 -77 -10z"/>
<path d="M2187 2603 c-2 -5 53 -183 123 -398 127 -390 127 -390 202 -393 52
-2 78 1 85 10 13 16 253 749 253 772 0 25 -146 23 -158 -1 -5 -10 -42 -128
-81 -263 -82 -279 -87 -292 -94 -270 -3 8 -40 130 -82 270 -43 140 -83 261
-88 268 -10 13 -153 18 -160 5z"/>
<path d="M3045 2598 c-3 -7 -4 -186 -3 -398 3 -385 3 -385 273 -385 270 0 270
0 270 70 0 70 0 70 -192 73 -193 2 -193 2 -193 102 0 100 0 100 173 102 172 3
172 3 175 71 3 67 3 67 -173 67 -175 0 -175 0 -175 80 0 80 0 80 188 82 187 3
187 3 187 73 0 70 0 70 -263 73 -205 2 -264 0 -267 -10z"/>
<path d="M3835 2599 c-3 -8 -4 -187 -3 -399 3 -385 3 -385 73 -385 70 0 70 0
73 163 2 162 2 162 47 162 62 0 95 -33 194 -195 79 -130 79 -130 162 -133 45
-2 86 1 91 6 11 11 -133 257 -177 302 -19 20 -35 39 -35 42 0 3 12 9 28 13 80
20 131 99 132 206 0 94 -36 163 -104 198 -47 24 -58 25 -262 29 -175 4 -215 2
-219 -9z m399 -160 c36 -29 37 -99 1 -134 -23 -24 -30 -25 -140 -25 -115 0
-115 0 -115 90 0 90 0 90 114 90 99 0 117 -3 140 -21z"/>
<path d="M5455 2598 c-3 -7 -4 -186 -3 -398 3 -385 3 -385 78 -385 75 0 75 0
75 395 0 395 0 395 -73 398 -52 2 -74 -1 -77 -10z"/>
<path d="M5865 2599 c-3 -8 -4 -187 -3 -399 3 -385 3 -385 189 -385 185 0 185
0 244 30 117 60 165 166 165 365 0 144 -21 225 -79 298 -64 81 -109 95 -328
100 -149 4 -184 2 -188 -9z m355 -157 c44 -24 69 -74 81 -162 11 -78 -1 -202
-25 -248 -30 -58 -50 -67 -162 -70 -104 -4 -104 -4 -104 247 0 251 0 251 88
251 66 0 96 -5 122 -18z"/>
<path d="M6906 2601 c-17 -27 -275 -774 -271 -782 9 -14 142 -11 152 3 4 7 20
46 34 88 26 75 26 75 165 75 139 0 139 0 169 -85 30 -85 30 -85 104 -88 41 -2
78 1 83 6 7 7 -244 719 -273 774 -8 15 -22 18 -84 18 -40 0 -76 -4 -79 -9z
m94 -230 c0 -9 16 -64 35 -121 19 -57 35 -108 35 -112 0 -4 -38 -8 -85 -8 -47
0 -85 3 -85 7 0 4 16 59 36 123 21 63 38 121 40 128 5 18 24 5 24 -17z"/>
<path d="M7545 2599 c-3 -8 -4 -187 -3 -399 3 -385 3 -385 188 -385 170 1 189
3 235 24 100 45 156 133 177 280 31 213 -45 411 -181 468 -51 23 -408 32 -416
12z m355 -157 c24 -12 43 -33 60 -67 23 -45 25 -62 25 -170 -1 -101 -4 -127
-22 -167 -30 -65 -59 -78 -178 -78 -95 0 -95 0 -95 250 0 250 0 250 88 250 63
0 97 -5 122 -18z"/>
<path d="M8385 2598 c-3 -7 -4 -186 -3 -398 3 -385 3 -385 273 -385 270 0 270
0 270 70 0 70 0 70 -192 73 -193 2 -193 2 -193 102 0 100 0 100 173 102 172 3
172 3 175 71 3 67 3 67 -173 67 -175 0 -175 0 -175 80 0 80 0 80 188 82 187 3
187 3 187 73 0 70 0 70 -263 73 -205 2 -264 0 -267 -10z"/>
<path d="M1372 1653 c-1372 -3 -1372 -3 -1372 -63 0 -60 0 -60 3023 -59 1662
1 3670 5 4462 8 1440 6 1440 6 1443 64 3 57 3 57 -3090 55 -1701 -2 -3711 -4
-4466 -5z"/>
<path d="M7727 1286 c-146 -53 -217 -182 -217 -397 0 -189 55 -303 179 -366
56 -29 72 -33 144 -33 95 0 160 25 214 80 38 39 75 113 77 154 1 27 -3 30 -67
52 -68 23 -68 23 -77 -2 -6 -14 -10 -29 -10 -33 0 -4 -13 -26 -30 -49 -55 -77
-155 -80 -219 -7 -40 46 -54 101 -54 210 0 50 5 109 12 133 41 146 217 178
281 51 11 -21 24 -40 30 -44 10 -6 120 22 134 36 14 13 -23 98 -63 142 -55 61
-119 87 -216 86 -44 0 -97 -6 -118 -13z"/>
<path d="M8430 1283 c-65 -23 -150 -112 -180 -188 -21 -53 -24 -77 -25 -200 0
-123 3 -147 23 -196 29 -73 91 -143 156 -176 67 -35 195 -43 279 -19 76 22
154 94 191 176 52 115 51 316 -1 432 -34 77 -115 152 -185 173 -66 19 -199 18
-258 -2z m192 -133 c46 -13 103 -76 119 -132 21 -73 16 -205 -10 -263 -29 -64
-54 -91 -107 -111 -79 -30 -163 2 -209 80 -47 80 -51 246 -7 331 24 48 46 69
92 89 42 18 72 19 122 6z"/>
<path d="M155 1277 c-3 -6 -4 -183 -3 -392 3 -380 3 -380 198 -380 194 0 195
0 248 28 95 50 150 157 159 313 7 114 -9 211 -48 291 -35 73 -85 118 -153 138
-66 20 -394 22 -401 2z m319 -136 c92 -22 131 -109 124 -276 -5 -113 -23 -164
-71 -199 -21 -16 -47 -21 -122 -24 -95 -4 -95 -4 -95 252 0 256 0 256 63 256
34 0 79 -5 101 -9z"/>
<path d="M875 1278 c-3 -7 -4 -184 -3 -393 3 -380 3 -380 273 -380 270 0 270
0 270 65 0 65 0 65 -197 68 -198 2 -198 2 -198 102 0 100 0 100 178 102 177 3
177 3 177 73 0 70 0 70 -178 73 -178 2 -178 2 -175 80 3 77 3 77 193 82 190 5
190 5 190 70 0 65 0 65 -263 68 -205 2 -264 0 -267 -10z"/>
<path d="M1818 1284 c-5 -4 -8 -182 -8 -396 0 -389 0 -389 73 -386 72 3 72 3
75 144 3 141 3 141 119 148 121 7 171 21 211 59 85 79 96 269 20 361 -54 66
-70 70 -288 74 -107 2 -198 0 -202 -4z m353 -172 c32 -36 37 -77 15 -121 -20
-39 -55 -51 -146 -51 -80 0 -80 0 -80 106 0 106 0 106 91 102 88 -4 93 -6 120
-36z"/>
<path d="M2475 1277 c-3 -6 -4 -183 -3 -392 3 -380 3 -380 273 -380 270 0 270
0 270 65 0 65 0 65 -197 68 -198 2 -198 2 -198 102 0 100 0 100 178 102 177 3
177 3 177 73 0 70 0 70 -177 73 -178 2 -178 2 -178 82 0 80 0 80 188 82 187 3
187 3 190 71 3 67 3 67 -258 67 -200 0 -262 -3 -265 -13z"/>
<path d="M3135 1278 c-3 -7 -4 -184 -3 -393 3 -380 3 -380 73 -380 70 0 70 0
73 164 3 163 3 163 49 156 25 -4 56 -13 67 -20 12 -8 57 -72 100 -142 44 -70
86 -136 94 -145 12 -15 31 -18 99 -18 55 0 83 4 83 11 0 26 -129 237 -172 283
-26 27 -47 50 -45 51 1 1 18 8 36 15 91 36 138 122 128 231 -7 78 -44 142
-100 171 -39 21 -57 23 -259 26 -175 3 -219 1 -223 -10z m401 -161 c32 -37 32
-87 0 -123 -22 -27 -28 -28 -140 -32 -116 -5 -116 -5 -116 85 0 49 3 93 8 97
4 4 56 6 116 4 104 -3 109 -4 132 -31z"/>
<path d="M3857 1283 c-4 -3 -7 -181 -7 -395 0 -389 0 -389 68 -386 67 3 67 3
69 238 1 158 5 236 12 238 6 2 11 -3 11 -11 0 -16 224 -421 248 -450 13 -15
29 -17 86 -15 71 3 71 3 71 393 0 390 0 390 -70 390 -70 0 -70 0 -71 -238 -1
-131 -4 -241 -8 -244 -3 -3 -10 5 -15 19 -10 26 -199 368 -238 431 -23 36 -24
37 -86 37 -35 0 -67 -3 -70 -7z"/>
<path d="M4627 904 c-76 -212 -134 -390 -131 -395 3 -5 38 -9 79 -9 73 0 73 0
86 38 49 151 37 142 184 142 134 0 134 0 153 -52 11 -29 23 -64 27 -78 13 -45
24 -50 101 -50 40 0 75 3 77 8 4 6 -262 747 -278 772 -3 5 -41 10 -84 10 -78
0 -78 0 -214 -386z m258 56 c21 -63 40 -121 42 -127 4 -10 -16 -13 -81 -13
-47 0 -86 3 -86 7 0 5 16 57 36 118 19 60 38 116 40 124 7 21 9 15 49 -109z"/>
<path d="M5275 1277 c-3 -6 -4 -183 -3 -392 3 -380 3 -380 73 -380 70 0 70 0
71 255 0 247 10 328 26 210 4 -30 29 -147 55 -260 48 -205 48 -205 123 -205
75 0 75 0 127 225 29 124 52 242 52 263 1 23 6 37 14 37 9 0 12 -59 12 -262 0
-263 0 -263 70 -263 70 0 70 0 70 390 0 390 0 390 -107 393 -94 2 -108 1 -116
-15 -5 -10 -33 -120 -62 -245 -30 -126 -57 -228 -61 -228 -4 0 -13 26 -19 58
-20 97 -98 410 -105 421 -9 16 -214 14 -220 -2z"/>
<path d="M6105 1278 c-3 -7 -4 -184 -3 -393 3 -380 3 -380 228 -380 196 0 229
2 257 18 74 40 112 110 113 205 0 80 -17 121 -69 162 -41 34 -41 34 -17 59 91
95 66 256 -49 319 -41 23 -452 32 -460 10z m396 -157 c26 -32 24 -74 -5 -108
-23 -27 -28 -28 -135 -31 -111 -4 -111 -4 -111 83 0 87 0 87 116 83 108 -3
117 -5 135 -27z m15 -313 c38 -38 39 -98 1 -135 -26 -27 -32 -28 -147 -31
-120 -4 -120 -4 -120 90 0 52 3 98 8 102 4 4 58 6 119 4 106 -3 114 -5 139
-30z"/>
<path d="M6817 1284 c-10 -10 -8 -406 2 -530 12 -136 41 -192 126 -237 35 -19
56 -22 160 -22 113 0 123 2 167 28 26 15 55 39 66 55 43 62 47 92 47 407 0
300 0 300 -70 300 -70 0 -70 0 -76 -280 -3 -175 -10 -290 -17 -307 -13 -30
-77 -68 -117 -68 -40 0 -92 26 -112 56 -16 25 -19 59 -23 314 -5 285 -5 285
-75 288 -39 1 -74 0 -78 -4z"/>
</g>
</svg>
